<?xml version="1.0" encoding="UTF-8" standalone="no"?>
<!-- Created with Inkscape (http://www.inkscape.org/) -->

<svg
   width="1501.4999"
   height="844.00146"
   viewBox="0 0 1501.4999 844.00146"
   version="1.1"
   id="svg1"
   xml:space="preserve"
   xmlns="http://www.w3.org/2000/svg"
   xmlns:svg="http://www.w3.org/2000/svg"><defs
     id="defs1" /><g
     id="layer1"
     transform="translate(-49.999999,-7.4985509)"><path
       style="fill:#f8d096;fill-opacity:1;stroke:none;stroke-width:2.52223;stroke-dasharray:none;stroke-opacity:1"
       id="rect72"
       width="901.80414"
       height="387.99133"
       x="99.097908"
       y="212.00867"
       ry="0"
       transform="matrix(0.99799935,0,0,1.4175571,-48.899651,-60.534385)"
       d="m 149.19814,212.00867 h 803.20499 a 48.498918,48.498918 45 0 1 48.49887,48.49891 V 549.89976 A 50.100238,50.100238 135 0 1 950.80181,600 h -803.205 A 48.498906,48.498906 45 0 1 99.097908,551.50109 V 262.1089 a 50.100229,50.100229 135 0 1 50.100232,-50.10023 z" /><rect
       style="fill:#cc9324;fill-opacity:1;stroke:#000000;stroke-width:0.999997;stroke-dasharray:none;stroke-opacity:1"
       id="rect80"
       width="20.000027"
       height="110"
       x="489.99988"
       y="430" /><path
       style="fill:none;fill-opacity:1;stroke:#000000;stroke-width:2;stroke-linecap:round;stroke-linejoin:round;stroke-dasharray:none;stroke-opacity:1"
       d="M 500,430 V 540"
       id="wire_fpga" /><path
       style="fill:#cc9324;fill-opacity:1;stroke:#000000;stroke-width:1;stroke-dasharray:none;stroke-opacity:1"
       d="M 189.99993,540 V 380 h 260.00004 v 20 H 209.99993 v 140 z"
       id="path83" /><path
       style="fill:none;fill-opacity:1;stroke:#000000;stroke-width:2;stroke-linecap:round;stroke-linejoin:round;stroke-dasharray:none;stroke-opacity:1"
       d="M 450,390 H 200 v 150"
       id="wire_cam" /><path
       style="fill:#cc9324;fill-opacity:1;stroke:#000000;stroke-width:1;stroke-dasharray:none;stroke-opacity:1"
       d="m 809.99994,540.00001 v -160 L 549.99997,380 v 20 l 239.99997,10e-6 v 140 z"
       id="path84" /><path
       style="fill:none;fill-opacity:1;stroke:#000000;stroke-width:2;stroke-linecap:round;stroke-linejoin:round;stroke-dasharray:none;stroke-opacity:1"
       d="M 550,390 H 800 V 540"
       id="wire_mcu" /><rect
       style="fill:#cc9324;fill-opacity:1;stroke:#000000;stroke-width:0.999997;stroke-dasharray:none;stroke-opacity:1"
       id="rect113"
       width="20.000027"
       height="89.5"
       x="489.99994"
       y="190.5" /><path
       style="fill:none;fill-opacity:1;stroke:#000000;stroke-width:2;stroke-linecap:round;stroke-linejoin:round;stroke-dasharray:none;stroke-opacity:1"
       d="m 499.99995,192 2e-5,88"
       id="wire_solar" /><g
       id="g10"
       transform="translate(-85.599127,408.49923)"
       style="display:none"><circle
         style="fill:#4552e0;fill-opacity:1"
         id="path1"
         cx="281.69089"
         cy="467.36285"
         r="82.226158" /><path
         style="fill:#45e054;fill-opacity:1;stroke-width:1.07249"
         d="m 273.89349,469.80522 c 5.51454,10.0758 -6.71084,10.69307 -5.36875,16.3231 8.85148,37.13195 -3.54278,48.63922 -3.54278,48.63922 0,0 -1.67128,5.89596 4.2292,8.84024 5.38494,2.68705 28.39605,-30.67292 37.45864,-40.18288 17.97411,-17.68047 17.11932,-20.25174 -3.47398,-35.62882 -5.80397,-4.33384 -17.99191,3.91493 -24.36945,0.90569 -1.74418,-0.82299 -2.90347,-4.39187 -0.79111,-7.6988 2.05199,-3.21241 8.22023,-5.6934 6.53125,-6.83251 -1.95625,-1.31938 -8.57355,-0.1505 -9.58278,-1.84977 -4.67001,-7.86309 -0.002,-12.54871 6.50354,-14.64159 10.13821,-3.26124 16.87516,-7.92282 22.46377,4.13204 2.52303,5.4423 5.95411,5.4793 6.64802,-0.31039 0.36803,-3.07067 -2.88479,-10.79811 -4.0803,-14.55729 -2.38001,-7.48369 -4.68233,-6.56319 -0.15104,-14.33188 4.53128,-7.7687 16.92448,-6.59766 7.55214,-14.73373 -1.86187,-1.61628 -13.19546,-14.00478 -18.91532,5.10392 -1.43371,4.78967 -15.48243,7.56819 -14.79325,0.95315 0.30654,-2.94212 4.39546,-9.48804 2.9506,-11.22149 -1.49429,-1.79273 -7.94299,-2.13364 -15.43887,-2.06082 -13.1396,0.12765 -12.32282,2.2036 -23.8773,6.84759 -6.1734,2.48122 4.13424,6.85632 4.59216,17.17455 0.25582,5.76439 -0.95826,19.49852 4.44384,27.36197 6.97511,10.15319 17.14409,20.70173 21.01177,27.7685 z"
         id="path8" /></g><g
       id="group_camera"
       transform="matrix(0.80563293,0,0,0.7963084,-27.852702,430.20062)"
       style="stroke-width:3.74552;stroke-dasharray:none"><path
         style="fill:#b266ff;fill-opacity:1;stroke:#000000;stroke-width:3.74552;stroke-dasharray:none;stroke-opacity:1"
         d="M 189.72988,363.92857 282.1264,263.46498 377.79163,363.9326 Z"
         id="path21" /><rect
         style="fill:#b266ff;fill-opacity:1;stroke:#000000;stroke-width:3.74552;stroke-dasharray:none;stroke-opacity:1"
         id="rect8"
         width="186.189"
         height="175.81126"
         x="189.72987"
         y="137.8855" /><rect
         style="fill:#b266ff;fill-opacity:1;stroke:#000000;stroke-width:3.74552;stroke-dasharray:none;stroke-opacity:1"
         id="rect22"
         width="49.650414"
         height="25.115889"
         x="202.14247"
         y="112.7696" /><text
         xml:space="preserve"
         style="font-style:normal;font-variant:normal;font-weight:normal;font-stretch:normal;font-size:76.6638px;font-family:'Polea Extra Bold';-inkscape-font-specification:'Polea Extra Bold, Normal';font-variant-ligatures:normal;font-variant-caps:normal;font-variant-numeric:normal;font-variant-east-asian:normal;writing-mode:lr-tb;direction:ltr;fill:#000000;fill-opacity:1;stroke:none;stroke-width:0.624253;stroke-dasharray:none;stroke-opacity:1"
         x="213.27763"
         y="252.33183"
         id="text10"
         transform="scale(0.99419608,1.0058378)"><tspan
           id="tspan10"
           x="213.27763"
           y="252.33183"
           style="fill:#000000;fill-opacity:1;stroke:none;stroke-width:0.624253;stroke-dasharray:none;stroke-opacity:1">CAM</tspan></text></g><g
       id="group_fpga"
       transform="translate(-75.000079,290)"><path
         d="m 520,250 a 20.000009,20.000009 0 0 0 -20,20 v 110 a 20.000009,20.000009 0 0 0 20,20 h 110 a 19.999996,19.999996 0 0 0 20,-20 V 270 a 19.999996,19.999996 0 0 0 -20,-20 z m 0,20 h 20 v 10 h -10 v 10 h -10 z m 90,0 h 20 v 20 h -10 v -10 h -10 z m -90,90 h 10 v 10 h 10 v 10 h -20 z m 100,0 h 10 v 20 h -20 v -10 h 10 z"
         style="fill:#ff7d31;fill-opacity:1;stroke:#000000;stroke-width:3"
         id="path10" /><rect
         style="fill:#ff7d31;fill-opacity:1;stroke:#000000;stroke-width:3;stroke-dasharray:none;stroke-opacity:1"
         id="rect10"
         width="10"
         height="30"
         x="530"
         y="219.99998" /><rect
         style="fill:#ff7d31;fill-opacity:1;stroke:#000000;stroke-width:3;stroke-dasharray:none;stroke-opacity:1"
         id="rect11"
         width="10"
         height="30"
         x="610"
         y="219.99998" /><rect
         style="fill:#ff7d31;fill-opacity:1;stroke:#000000;stroke-width:3;stroke-dasharray:none;stroke-opacity:1"
         id="rect12"
         width="10"
         height="30"
         x="570"
         y="220" /><rect
         style="fill:#ff7d31;fill-opacity:1;stroke:#000000;stroke-width:3;stroke-dasharray:none;stroke-opacity:1"
         id="rect13"
         width="10"
         height="30"
         x="530"
         y="400" /><rect
         style="fill:#ff7d31;fill-opacity:1;stroke:#000000;stroke-width:3;stroke-dasharray:none;stroke-opacity:1"
         id="rect14"
         width="10"
         height="30"
         x="610"
         y="400" /><rect
         style="fill:#ff7d31;fill-opacity:1;stroke:#000000;stroke-width:3;stroke-dasharray:none;stroke-opacity:1"
         id="rect15"
         width="10"
         height="30"
         x="570"
         y="400" /><rect
         style="fill:#ff7d31;fill-opacity:1;stroke:#000000;stroke-width:3;stroke-dasharray:none;stroke-opacity:1"
         id="rect16"
         width="10"
         height="30"
         x="280"
         y="-680"
         transform="rotate(90)" /><rect
         style="fill:#ff7d31;fill-opacity:1;stroke:#000000;stroke-width:3;stroke-dasharray:none;stroke-opacity:1"
         id="rect17"
         width="10"
         height="30"
         x="360"
         y="-680"
         transform="rotate(90)" /><rect
         style="fill:#ff7d31;fill-opacity:1;stroke:#000000;stroke-width:3;stroke-dasharray:none;stroke-opacity:1"
         id="rect18"
         width="10"
         height="30"
         x="320"
         y="-680"
         transform="rotate(90)" /><rect
         style="fill:#ff7d31;fill-opacity:1;stroke:#000000;stroke-width:3;stroke-dasharray:none;stroke-opacity:1"
         id="rect19"
         width="10"
         height="30"
         x="280"
         y="-499.99997"
         transform="rotate(90)" /><rect
         style="fill:#ff7d31;fill-opacity:1;stroke:#000000;stroke-width:3;stroke-dasharray:none;stroke-opacity:1"
         id="rect20"
         width="10"
         height="30"
         x="360"
         y="-499.99997"
         transform="rotate(90)" /><rect
         style="fill:#ff7d31;fill-opacity:1;stroke:#000000;stroke-width:3;stroke-dasharray:none;stroke-opacity:1"
         id="rect21"
         width="10"
         height="30"
         x="320"
         y="-499.99997"
         transform="rotate(90)" /><text
         xml:space="preserve"
         style="font-style:normal;font-variant:normal;font-weight:normal;font-stretch:normal;font-size:61.4044px;font-family:'Polea Extra Bold';-inkscape-font-specification:'Polea Extra Bold, Normal';font-variant-ligatures:normal;font-variant-caps:normal;font-variant-numeric:normal;font-variant-east-asian:normal;writing-mode:lr-tb;direction:ltr;fill:#000000;fill-opacity:1;stroke:none;stroke-width:0.5;stroke-dasharray:none;stroke-opacity:1"
         x="507.97357"
         y="342.30759"
         id="text21"><tspan
           id="tspan21"
           x="507.97357"
           y="342.30759">FPGA</tspan></text></g><g
       id="group_mcu"
       transform="translate(-5.6066568,198.50003)"><path
         style="fill:#33ff35;fill-opacity:1;stroke:#000000;stroke-width:3.74552;stroke-dasharray:none;stroke-opacity:1"
         id="rect23"
         width="186.18901"
         height="188.36923"
         x="899.12079"
         y="137.88951"
         d="m 911.53344,137.88951 h 161.21836 a 12.557956,12.557956 45 0 1 12.558,12.55796 v 163.39872 a 12.412554,12.412554 135 0 1 -12.4126,12.41255 l -161.36376,0 A 12.412652,12.412652 45 0 1 899.12079,313.84609 V 150.30216 a 12.412652,12.412652 135 0 1 12.41265,-12.41265 z"
         transform="matrix(0.80563293,0,0,0.7963084,6.2452841,231.6974)" /><rect
         style="fill:#33ff35;fill-opacity:1;stroke:#000000;stroke-width:2.99999;stroke-dasharray:none;stroke-opacity:1"
         id="rect24"
         width="9.106657"
         height="20.000008"
         x="750.60657"
         y="311.49997" /><rect
         style="fill:#33ff35;fill-opacity:1;stroke:#000000;stroke-width:2.99999;stroke-dasharray:none;stroke-opacity:1"
         id="rect25"
         width="9.106657"
         height="20.000008"
         x="770.60657"
         y="311.49997" /><rect
         style="fill:#33ff35;fill-opacity:1;stroke:#000000;stroke-width:2.99999;stroke-dasharray:none;stroke-opacity:1"
         id="rect26"
         width="9.106657"
         height="20.000008"
         x="791.49994"
         y="311.49997" /><rect
         style="fill:#33ff35;fill-opacity:1;stroke:#000000;stroke-width:2.99999;stroke-dasharray:none;stroke-opacity:1"
         id="rect27"
         width="9.106657"
         height="20.000008"
         x="811.49994"
         y="311.49997" /><rect
         style="fill:#33ff35;fill-opacity:1;stroke:#000000;stroke-width:2.99999;stroke-dasharray:none;stroke-opacity:1"
         id="rect28"
         width="9.106657"
         height="20.000008"
         x="831.49994"
         y="311.49997" /><rect
         style="fill:#33ff35;fill-opacity:1;stroke:#000000;stroke-width:2.99999;stroke-dasharray:none;stroke-opacity:1"
         id="rect29"
         width="9.106657"
         height="20.000008"
         x="851.49994"
         y="311.49997" /><rect
         style="fill:#33ff35;fill-opacity:1;stroke:#000000;stroke-width:2.99999;stroke-dasharray:none;stroke-opacity:1"
         id="rect30"
         width="9.106657"
         height="20.000008"
         x="750.60657"
         y="501.49997" /><rect
         style="fill:#33ff35;fill-opacity:1;stroke:#000000;stroke-width:2.99999;stroke-dasharray:none;stroke-opacity:1"
         id="rect31"
         width="9.106657"
         height="20.000008"
         x="770.60657"
         y="501.49997" /><rect
         style="fill:#33ff35;fill-opacity:1;stroke:#000000;stroke-width:2.99999;stroke-dasharray:none;stroke-opacity:1"
         id="rect32"
         width="9.106657"
         height="20.000008"
         x="791.49994"
         y="501.49997" /><rect
         style="fill:#33ff35;fill-opacity:1;stroke:#000000;stroke-width:2.99999;stroke-dasharray:none;stroke-opacity:1"
         id="rect33"
         width="9.106657"
         height="20.000008"
         x="811.49994"
         y="501.49997" /><rect
         style="fill:#33ff35;fill-opacity:1;stroke:#000000;stroke-width:2.99999;stroke-dasharray:none;stroke-opacity:1"
         id="rect34"
         width="9.106657"
         height="20.000008"
         x="831.49994"
         y="501.49997" /><rect
         style="fill:#33ff35;fill-opacity:1;stroke:#000000;stroke-width:2.99999;stroke-dasharray:none;stroke-opacity:1"
         id="rect35"
         width="9.106657"
         height="20.000008"
         x="851.49994"
         y="501.49997" /><rect
         style="fill:#33ff35;fill-opacity:1;stroke:#000000;stroke-width:2.99999;stroke-dasharray:none;stroke-opacity:1"
         id="rect36"
         width="9.106657"
         height="20.000008"
         x="361.49997"
         y="-910.60657"
         transform="rotate(90)" /><rect
         style="fill:#33ff35;fill-opacity:1;stroke:#000000;stroke-width:2.99999;stroke-dasharray:none;stroke-opacity:1"
         id="rect37"
         width="9.106657"
         height="20.000008"
         x="381.49997"
         y="-910.60657"
         transform="rotate(90)" /><rect
         style="fill:#33ff35;fill-opacity:1;stroke:#000000;stroke-width:2.99999;stroke-dasharray:none;stroke-opacity:1"
         id="rect38"
         width="9.106657"
         height="20.000008"
         x="402.39334"
         y="-910.60657"
         transform="rotate(90)" /><rect
         style="fill:#33ff35;fill-opacity:1;stroke:#000000;stroke-width:2.99999;stroke-dasharray:none;stroke-opacity:1"
         id="rect39"
         width="9.106657"
         height="20.000008"
         x="422.39334"
         y="-910.60657"
         transform="rotate(90)" /><rect
         style="fill:#33ff35;fill-opacity:1;stroke:#000000;stroke-width:2.99999;stroke-dasharray:none;stroke-opacity:1"
         id="rect40"
         width="9.106657"
         height="20.000008"
         x="442.39334"
         y="-910.60657"
         transform="rotate(90)" /><rect
         style="fill:#33ff35;fill-opacity:1;stroke:#000000;stroke-width:2.99999;stroke-dasharray:none;stroke-opacity:1"
         id="rect41"
         width="9.106657"
         height="20.000008"
         x="462.39334"
         y="-910.60657"
         transform="rotate(90)" /><rect
         style="fill:#33ff35;fill-opacity:1;stroke:#000000;stroke-width:2.99999;stroke-dasharray:none;stroke-opacity:1"
         id="rect42"
         width="9.106657"
         height="20.000008"
         x="361.49997"
         y="-720.60657"
         transform="rotate(90)" /><rect
         style="fill:#33ff35;fill-opacity:1;stroke:#000000;stroke-width:2.99999;stroke-dasharray:none;stroke-opacity:1"
         id="rect43"
         width="9.106657"
         height="20.000008"
         x="381.49997"
         y="-720.60657"
         transform="rotate(90)" /><rect
         style="fill:#33ff35;fill-opacity:1;stroke:#000000;stroke-width:2.99999;stroke-dasharray:none;stroke-opacity:1"
         id="rect44"
         width="9.106657"
         height="20.000008"
         x="402.39334"
         y="-720.60657"
         transform="rotate(90)" /><rect
         style="fill:#33ff35;fill-opacity:1;stroke:#000000;stroke-width:2.99999;stroke-dasharray:none;stroke-opacity:1"
         id="rect45"
         width="9.106657"
         height="20.000008"
         x="422.39334"
         y="-720.60657"
         transform="rotate(90)" /><rect
         style="fill:#33ff35;fill-opacity:1;stroke:#000000;stroke-width:2.99999;stroke-dasharray:none;stroke-opacity:1"
         id="rect46"
         width="9.106657"
         height="20.000008"
         x="442.39334"
         y="-720.60657"
         transform="rotate(90)" /><rect
         style="fill:#33ff35;fill-opacity:1;stroke:#000000;stroke-width:2.99999;stroke-dasharray:none;stroke-opacity:1"
         id="rect47"
         width="9.106657"
         height="20.000008"
         x="462.39334"
         y="-720.60657"
         transform="rotate(90)" /><text
         xml:space="preserve"
         style="font-style:normal;font-variant:normal;font-weight:normal;font-stretch:normal;font-size:61.4044px;font-family:'Polea Extra Bold';-inkscape-font-specification:'Polea Extra Bold, Normal';font-variant-ligatures:normal;font-variant-caps:normal;font-variant-numeric:normal;font-variant-east-asian:normal;writing-mode:lr-tb;direction:ltr;fill:#000000;fill-opacity:1;stroke:none;stroke-width:3;stroke-dasharray:none;stroke-opacity:1"
         x="753.60669"
         y="433.80756"
         id="text47"><tspan
           id="tspan47"
           x="753.60669"
           y="433.80756">MCU</tspan></text></g><g
       id="g2"><rect
         style="fill:#00ff29;fill-opacity:1;stroke:none;stroke-width:3;stroke-linecap:round;stroke-linejoin:round;stroke-dasharray:none;stroke-dashoffset:0;stroke-opacity:1"
         id="battery_fill"
         width="100"
         height="150.00002"
         x="448.49994"
         y="281.49997" /><path
         style="fill:none;fill-opacity:1;stroke:#000000;stroke-width:3;stroke-linecap:round;stroke-linejoin:round;stroke-dasharray:none;stroke-dashoffset:0;stroke-opacity:1"
         d="m 512.9409,301.70366 -37.43585,62.43843 21.90672,-4.48287 -12.94095,48.2963 37.43585,-62.43843 -21.90672,4.48287 z"
         id="path53" /><path
         style="fill:none;fill-opacity:1;stroke:#000000;stroke-width:3.0141;stroke-linejoin:round;stroke-opacity:1"
         id="rect2"
         width="99.999992"
         height="150"
         x="449.99994"
         y="279.99997"
         d="m 449.99994,279.99997 h 99.99999 v 150 h -99.99999 z" /></g><g
       id="g3"
       transform="translate(-4.1253025,-40.00002)"
       style="fill:#ffd600;fill-opacity:1;stroke:#ffd600;stroke-opacity:1"><circle
         style="fill:#ffd600;fill-opacity:1;stroke:#ffd600;stroke-width:1;stroke-dasharray:none;stroke-opacity:1"
         id="path90"
         cx="559.56256"
         cy="114.56269"
         r="43.146179" /><path
         style="fill:#ffd600;fill-opacity:1;stroke:#ffd600;stroke-width:9.99999;stroke-linecap:round;stroke-dasharray:none;stroke-opacity:1"
         d="M 559.56259,52.498566 V 64.446741"
         id="path92" /><path
         style="fill:#ffd600;fill-opacity:1;stroke:#ffd600;stroke-width:9.99999;stroke-linecap:round;stroke-dasharray:none;stroke-opacity:1"
         d="m 609.67854,114.56269 h 11.94817"
         id="path95" /><path
         style="fill:#ffd600;fill-opacity:1;stroke:#ffd600;stroke-width:9.99999;stroke-linecap:round;stroke-dasharray:none;stroke-opacity:1"
         d="m 497.49847,114.56269 h 11.94818"
         id="path96" /><path
         style="fill:#ffd600;fill-opacity:1;stroke:#ffd600;stroke-width:9.99999;stroke-linecap:round;stroke-dasharray:none;stroke-opacity:1"
         d="m 559.56259,164.67864 v 11.94817"
         id="path97" /><path
         style="fill:#ffd600;fill-opacity:1;stroke:#ffd600;stroke-width:9.99999;stroke-linecap:round;stroke-dasharray:none;stroke-opacity:1"
         d="m 603.44856,70.67673 -8.44864,8.448635"
         id="path98" /><path
         style="fill:#ffd600;fill-opacity:1;stroke:#ffd600;stroke-width:9.99999;stroke-linecap:round;stroke-dasharray:none;stroke-opacity:1"
         d="m 594.99992,150.00001 8.44864,8.44864"
         id="path99" /><path
         style="fill:#ffd600;fill-opacity:1;stroke:#ffd600;stroke-width:9.99999;stroke-linecap:round;stroke-dasharray:none;stroke-opacity:1"
         d="m 515.67663,70.676726 8.44864,8.448639"
         id="path100" /><path
         style="fill:#ffd600;fill-opacity:1;stroke:#ffd600;stroke-width:9.99999;stroke-linecap:round;stroke-dasharray:none;stroke-opacity:1"
         d="m 524.12527,150.00002 -8.44864,8.44863"
         id="path101" /></g><g
       id="group_solar"
       transform="translate(-35.000007,160)"><path
         style="fill:#301a9f;fill-opacity:1;stroke:#000000;stroke-width:3;stroke-linecap:round;stroke-linejoin:round;stroke-dasharray:none;stroke-opacity:1"
         d="m 419.99998,-69.999998 50,90.000002 h 149.99999 l -49.99999,-90.000002 z"
         id="path103" /><path
         style="fill:#a8a8a8;fill-opacity:1;stroke:#000000;stroke-width:3;stroke-linecap:round;stroke-linejoin:round;stroke-dasharray:none;stroke-opacity:1"
         d="m 419.99998,-69.999998 v 10 l 50,89.999997 h 149.99999 v -10 H 469.99998 Z"
         id="path104" /><path
         style="fill:#a8a8a8;fill-opacity:1;stroke:#000000;stroke-width:3;stroke-linecap:round;stroke-linejoin:round;stroke-dasharray:none;stroke-opacity:1"
         d="m 469.99998,19.999999 v 10"
         id="path105" /><path
         style="fill:none;fill-opacity:1;stroke:#6851e3;stroke-width:3;stroke-linecap:round;stroke-linejoin:round;stroke-dasharray:none;stroke-opacity:1"
         d="m 469.99998,-69.999998 50,89.999997"
         id="path106" /><path
         style="fill:none;fill-opacity:1;stroke:#6851e3;stroke-width:3;stroke-linecap:round;stroke-linejoin:round;stroke-dasharray:none;stroke-opacity:1"
         d="m 524.99998,-69.999998 50,89.999997"
         id="path107" /><path
         style="fill:none;fill-opacity:1;stroke:#6851e3;stroke-width:3;stroke-linecap:round;stroke-linejoin:round;stroke-dasharray:none;stroke-opacity:1"
         d="M 454.09925,-11.5 H 601.52572"
         id="path111" /><path
         style="fill:none;fill-opacity:1;stroke:#6851e3;stroke-width:3;stroke-linecap:butt;stroke-linejoin:round;stroke-dasharray:none;stroke-opacity:1"
         d="M 436.66667,-39.999999 H 586.00001"
         id="path112" /><path
         style="fill:none;fill-opacity:1;stroke:#000000;stroke-width:3;stroke-linecap:round;stroke-linejoin:round;stroke-dasharray:none;stroke-opacity:1"
         d="m 419.99998,-69.999998 50,90.000002 h 149.99999 l -49.99999,-90.000002 z"
         id="path113" /></g><g
       id="g5"
       transform="translate(1.5624969e-5,-320)"><rect
         style="fill:#cbcbcb;fill-opacity:1;stroke:#000000;stroke-width:2.99999;stroke-linecap:round;stroke-linejoin:round;stroke-dasharray:none;stroke-dashoffset:0;stroke-opacity:1"
         id="rect48"
         width="349.99982"
         height="250"
         x="1199.9999"
         y="850" /><path
         style="fill:#878787;fill-opacity:1;stroke:#000000;stroke-width:3;stroke-linecap:round;stroke-linejoin:round;stroke-dasharray:none;stroke-dashoffset:0;stroke-opacity:1"
         d="m 1349.9999,1100 v 30 l -40,20 v 20 h 130 v -20 l -40,-20 v -30 z"
         id="path48" /><rect
         style="fill:#6765eb;fill-opacity:1;stroke:#000000;stroke-width:3.00001;stroke-linecap:round;stroke-linejoin:round;stroke-dasharray:none;stroke-dashoffset:0;stroke-opacity:1"
         id="rect49"
         width="309.99997"
         height="209.99998"
         x="1219.9999"
         y="869.99994" /><g
         id="g53"><path
           style="fill:#65ebe0;fill-opacity:1;stroke:#000000;stroke-width:3;stroke-linecap:round;stroke-linejoin:round;stroke-dasharray:none;stroke-dashoffset:0;stroke-opacity:1"
           d="m 1219.9999,870 v 123.25 c 0,0 50,46.75 110,26.75 60,-20 100,-50 110,-80 10,-30 0,-70 0,-70 z"
           id="path51" /><path
           style="fill:#eb6565;fill-opacity:1;stroke:#000000;stroke-width:3;stroke-linecap:round;stroke-linejoin:round;stroke-dasharray:none;stroke-dashoffset:0;stroke-opacity:1"
           d="m 1259.9999,920 h 80 l 30,20 -30,20 h -80 z"
           id="path49" /><path
           style="fill:#65eb83;fill-opacity:1;stroke:#000000;stroke-width:3;stroke-linecap:round;stroke-linejoin:round;stroke-dasharray:none;stroke-dashoffset:0;stroke-opacity:1"
           d="m 1469.9999,1040.0001 v -80.00015 l 20,-30 20,30 v 80.00015 z"
           id="path50" /><path
           style="fill:#65eb83;fill-opacity:1;stroke:#000000;stroke-width:3;stroke-linecap:round;stroke-linejoin:round;stroke-dasharray:none;stroke-dashoffset:0;stroke-opacity:1"
           d="m 1429.9999,1060 -55.0001,10e-5 -30,-20 30,-20 55.0001,-10e-5 z"
           id="path2" /></g></g><g
       id="group_antenna"><path
         style="fill:#bbbbbb;fill-opacity:1;stroke:#000000;stroke-width:3;stroke-linejoin:round;stroke-opacity:1"
         d="m 1011.0606,561.06066 v 100 c 0,0 -30,-10 -30,-50 0,-40 30,-50 30,-50 z"
         id="path6" /><path
         style="fill:#bbbbbb;fill-opacity:1;stroke:#000000;stroke-width:3;stroke-linejoin:round;stroke-opacity:1"
         d="m 1011.0606,631.06066 20,-20"
         id="path15" /><path
         style="fill:#bbbbbb;fill-opacity:1;stroke:#000000;stroke-width:3;stroke-linejoin:round;stroke-opacity:1"
         d="m 1011.0606,591.06066 20,20"
         id="path16" /><path
         style="fill:#bbbbbb;fill-opacity:1;stroke:#000000;stroke-width:3;stroke-linejoin:round;stroke-opacity:1"
         d="m 1041.0606,611.06066 h -30"
         id="path17" /><ellipse
         style="fill:#000000;fill-opacity:1;stroke:#000000;stroke-width:3;stroke-linejoin:round;stroke-opacity:1"
         id="path18"
         cx="1041.0605"
         cy="611.06067"
         rx="4.9999995"
         ry="5" /><path
         style="fill:#000000;fill-opacity:1;stroke:#000000;stroke-width:3.00094;stroke-linecap:round;stroke-linejoin:round;stroke-dasharray:none;stroke-opacity:1"
         d="m 981.0606,611.06066 -29.99996,-20"
         id="path19" /><path
         style="fill:#000000;fill-opacity:1;stroke:#000000;stroke-width:3.00094;stroke-linecap:round;stroke-linejoin:round;stroke-dasharray:none;stroke-opacity:1"
         d="M 951.06064,611.06066 H 981.0606"
         id="path20" /><path
         style="fill:#000000;fill-opacity:1;stroke:#000000;stroke-width:3.00094;stroke-linecap:round;stroke-linejoin:round;stroke-dasharray:none;stroke-opacity:1"
         d="m 951.06064,631.06066 29.99996,-20"
         id="path22" /><path
         style="fill:none;fill-opacity:1;stroke:#000000;stroke-width:3.00094;stroke-linecap:round;stroke-linejoin:round;stroke-dasharray:none;stroke-opacity:1"
         d="m 1059.9999,580 c 13.3334,20 13.3334,40 0,60"
         id="path23" /><path
         style="fill:none;fill-opacity:1;stroke:#000000;stroke-width:3.00094;stroke-linecap:round;stroke-linejoin:round;stroke-dasharray:none;stroke-opacity:1"
         d="m 1079.9999,570 c 20,20 20,60 0,80"
         id="path24" /><path
         style="fill:none;fill-opacity:1;stroke:#000000;stroke-width:3.00094;stroke-linecap:round;stroke-linejoin:round;stroke-dasharray:none;stroke-opacity:1"
         d="m 1099.9999,560 c 30,30 30,70 0,100"
         id="path25" /></g></g></svg>
